<svg width="290" height="89" fill="none" xmlns="http://www.w3.org/2000/svg"><path d="M289.157 31.934c.489 5.527-2.907 11.242-9.731 16.858-6.809 5.603-16.933 11.022-29.643 15.953-25.414 9.858-61.061 17.723-100.913 21.243-39.852 3.52-76.326 2.026-103.075-3.224-13.378-2.626-24.295-6.186-31.98-10.51-7.703-4.332-12.048-9.363-12.537-14.89-.488-5.527 2.908-11.242 9.732-16.857 6.81-5.604 16.932-11.022 29.643-15.953C66.067 14.695 101.714 6.831 141.566 3.31c39.852-3.52 76.326-2.026 103.075 3.225 13.378 2.626 24.294 6.186 31.98 10.509 7.703 4.332 12.048 9.363 12.536 14.89z" stroke="#fff"/></svg>