<svg width="17" height="17" fill="none" xmlns="http://www.w3.org/2000/svg"><mask id="a" fill="#fff"><path fill-rule="evenodd" clip-rule="evenodd" d="M12.213 12.878l.514-.514.008.007a7 7 0 10-.522.507zm.332.374a7.5 7.5 0 11.543-.527l3.539 3.539-.535.535-3.547-3.547z"/></mask><path d="M12.213 12.878l.33.376.012-.01.011-.012-.353-.354zm.514-.514l.354-.354-.354-.353-.354.353.354.354zm.008.007l-.354.354.367.367.353-.38-.366-.34zm-.19.88l.353-.353-.33-.33-.353.308.33.376zm.543-.526l-.365-.341-.33.353.342.342.353-.354zm3.539 3.539l.354.354.353-.354-.353-.354-.354.354zm-.535.535l-.354.354.354.353.353-.353-.353-.354zm-3.526-3.567l.514-.515-.707-.707-.514.514.707.708zm-.193-.515l.008.008.707-.707-.007-.008-.708.707zm.728-.005a7.5 7.5 0 00-.191-10.409l-.707.707a6.5 6.5 0 01.166 9.021l.732.681zM12.91 2.303a7.5 7.5 0 00-10.607 0l.707.707a6.5 6.5 0 019.193 0l.707-.707zm-10.607 0a7.5 7.5 0 000 10.607l.707-.707a6.5 6.5 0 010-9.193l-.707-.707zm0 10.607a7.5 7.5 0 0010.24.344l-.66-.752a6.5 6.5 0 01-8.873-.3l-.707.708zm-.353.354a8 8 0 0010.924.364l-.659-.752a7 7 0 01-9.558-.32l-.707.708zm0-11.314a8 8 0 000 11.314l.707-.708a7 7 0 010-9.9L1.95 1.95zm11.314 0a8 8 0 00-11.314 0l.707.707a7 7 0 019.9 0l.707-.707zm.19 11.117a8 8 0 00-.19-11.117l-.708.707a7 7 0 01.167 9.727l.73.683zm-.72.012l3.54 3.538.707-.707-3.539-3.538-.707.707zm3.54 2.831l-.536.535.707.708.536-.535-.708-.708zm.171.535l-3.547-3.547-.707.707 3.547 3.548.707-.707z" fill="#fff" mask="url(#a)"/></svg>